<?xml version="1.0" encoding="UTF-8"?>
<svg width="600" height="400" viewBox="0 0 600 400" xmlns="http://www.w3.org/2000/svg">
    <!-- Background Elements -->
    <circle cx="300" cy="200" r="150" fill="url(#bg-gradient)" opacity="0.1" />
    <circle cx="400" cy="100" r="50" fill="url(#bg-gradient)" opacity="0.05" />
    <circle cx="200" cy="300" r="80" fill="url(#bg-gradient)" opacity="0.08" />
    
    <!-- Main Elements -->
    <g transform="translate(150, 50)">
        <!-- Child Figure -->
        <circle cx="150" cy="150" r="40" fill="#6dd5ed" /> <!-- Head -->
        <path d="M150,190 L150,280 M120,220 L180,220 M130,300 L150,280 M170,300 L150,280" 
              stroke="#2193b0" stroke-width="8" stroke-linecap="round" /> <!-- Body and Limbs -->
        <circle cx="140" cy="140" r="5" fill="#fff" /> <!-- Left Eye -->
        <circle cx="160" cy="140" r="5" fill="#fff" /> <!-- Right Eye -->
        <path d="M140,160 Q150,170 160,160" stroke="#fff" stroke-width="3" fill="none" /> <!-- Smile -->
        
        <!-- Puzzle Pieces Floating Around -->
        <g transform="translate(0, 0)">
            <path d="M85,60 C85,53 88,50 95,50 C102,50 105,53 105,60 C105,67 102,70 95,70 C88,70 85,67 85,60 M95,75 C105,75 115,65 115,55 C115,45 105,35 95,35 C85,35 75,45 75,55 C75,65 85,75 95,75" 
                  fill="#f64f59" opacity="0.8" />
        </g>
        
        <g transform="translate(200, 50)">
            <path d="M125,90 C125,83 128,80 135,80 C142,80 145,83 145,90 C145,97 142,100 135,100 C128,100 125,97 125,90 M135,105 C145,105 155,95 155,85 C155,75 145,65 135,65 C125,65 115,75 115,85 C115,95 125,105 135,105" 
                  fill="#12c2e9" opacity="0.8" />
        </g>
        
        <g transform="translate(100, 200)">
            <path d="M85,120 C85,113 88,110 95,110 C102,110 105,113 105,120 C105,127 102,130 95,130 C88,130 85,127 85,120 M95,135 C105,135 115,125 115,115 C115,105 105,95 95,95 C85,95 75,105 75,115 C75,125 85,135 95,135" 
                  fill="#c471ed" opacity="0.8" />
        </g>
    </g>
    
    <!-- Stars/Sparkles -->
    <g fill="#ffeb3b" opacity="0.6">
        <circle cx="100" cy="100" r="3" />
        <circle cx="500" cy="150" r="2" />
        <circle cx="450" cy="300" r="3" />
        <circle cx="150" cy="350" r="2" />
        <circle cx="300" cy="50" r="3" />
    </g>
    
    <!-- Gradient Definitions -->
    <defs>
        <linearGradient id="bg-gradient" x1="0%" y1="0%" x2="100%" y2="100%">
            <stop offset="0%" style="stop-color:#2193b0" />
            <stop offset="100%" style="stop-color:#6dd5ed" />
        </linearGradient>
    </defs>
</svg> 